<svg xmlns="http://www.w3.org/2000/svg" baseProfile="full" version="1.1" style="fill: none;" width="1455px" height="735px"><path style="stroke-width: 15px; stroke-linecap: round; stroke-linejoin: round; stroke: rgb(106, 106, 106); fill: none;" d=""/><path style="stroke-width: 7px; stroke-linecap: round; stroke-linejoin: round; stroke: rgb(74, 74, 74); fill: none;" d="M240,420 A45,165 0 0,0 285,255 A105,105 0 0,1 390,150 M60,255 A120,105 0 0,1 180,150 L180,150 L390,150 M180,360 A90,90 0 0,0 90,270 L90,270 L75,270 M240,420 Q435,540 180,555 M675,645 Q660,585 600,630 A240,150 0 0,1 840,480 L840,480 A120,120 0 0,1 720,360 L720,360 A480,60 0 0,1 240,420 M960,360 A390,90 0 0,1 1350,270 M960,600 Q1140,660 1155,495 M1155,465 A195,195 0 0,1 1350,270 A75,120 0 0,1 1275,150 M420,180 Q420,360 660,300 M165,570 A405,90 0 0,0 570,660 M690,660 Q1140,720 1155,495 M780,300 L945,300 A135,120 0 0,0 1080,180 "/><path style="stroke-width: 9px; stroke-linecap: round; stroke-linejoin: round; stroke: rgb(10, 10, 10); fill: none;" d="M120,420 A60,60 0 0,1 180,360 A60,60 0 0,1 240,420 A60,60 0 0,1 180,480 A60,60 0 0,1 120,420 M960,360 A120,120 0 0,1 1080,480 A120,120 0 0,1 960,600 A120,120 0 0,1 840,480 A120,120 0 0,1 960,360 M1140,480 A15,15 0 0,1 1155,465 A15,15 0 0,1 1170,480 A15,15 0 0,1 1155,495 A15,15 0 0,1 1140,480 M420,120 A30,30 0 0,1 450,150 A30,30 0 0,1 420,180 A30,30 0 0,1 390,150 A30,30 0 0,1 420,120 M1275,120 A15,15 0 0,1 1290,135 A15,15 0 0,1 1275,150 A15,15 0 0,1 1260,135 A15,15 0 0,1 1275,120 M720,240 A60,60 0 0,1 780,300 A60,60 0 0,1 720,360 A60,60 0 0,1 660,300 A60,60 0 0,1 720,240 M165,540 A15,15 0 0,1 180,555 A15,15 0 0,1 165,570 A15,15 0 0,1 150,555 A15,15 0 0,1 165,540 M60,255 A15,15 0 0,1 75,270 A15,15 0 0,1 60,285 A15,15 0 0,1 45,270 A15,15 0 0,1 60,255 M600,690 A30,30 0 0,1 570,660 A30,30 0 0,1 600,630 A30,30 0 0,1 630,660 A30,30 0 0,1 600,690 M675,645 A15,15 0 0,0 660,660 A15,15 0 0,0 675,675 A15,15 0 0,0 690,660 A15,15 0 0,0 675,645 M900,165 A15,15 0 0,1 915,180 A15,15 0 0,1 900,195 A15,15 0 0,1 885,180 A15,15 0 0,1 900,165 M375,555 A30,30 0 0,1 405,585 A30,30 0 0,1 375,615 A30,30 0 0,1 345,585 A30,30 0 0,1 375,555 M1350,270 A15,15 0 0,1 1365,255 A15,15 0 0,1 1380,270 A15,15 0 0,1 1365,285 A15,15 0 0,1 1350,270 M795,75 A30,30 0 0,1 825,105 A30,30 0 0,1 795,135 A30,30 0 0,1 765,105 A30,30 0 0,1 795,75 M1080,60 A60,60 0 0,1 1140,120 A60,60 0 0,1 1080,180 A60,60 0 0,1 1020,120 A60,60 0 0,1 1080,60 "/></svg>