<svg xmlns="http://www.w3.org/2000/svg" baseProfile="full" version="1.1" style="fill: none;" width="270px" height="270px"><path style="stroke-width: 15px; stroke-linecap: round; stroke-linejoin: round; stroke: rgb(255, 255, 255); fill: rgb(255, 255, 255);" d="M30,240 L30,240 L30,30 L240,30 L240,240 L30,240 "/><path style="stroke-width: 15px; stroke-linecap: round; stroke-linejoin: round; stroke: rgb(255, 255, 255); fill: rgb(255, 255, 255);" d="M45,255 L45,255 L225,255 M255,45 L255,45 L255,225 M225,15 L225,15 L45,15 M15,45 L15,45 L15,225 M225,255 A30,30 0 0,0 255,225 M255,45 A30,30 0 0,0 225,15 M15,45 L15,45 A30,30 0 0,1 45,15 M15,225 A30,30 0 0,0 45,255 "/><path style="stroke-width: 15px; stroke-linecap: butt; stroke-linejoin: round; stroke: rgb(10, 10, 10); fill: none;" d="M135,75 A60,60 0 0,0 75,135 A60,60 0 0,0 135,195 A60,60 0 0,0 195,135 A60,60 0 0,0 135,75 M45,90 A15,15 0 0,1 60,75 A15,15 0 0,1 75,90 L75,135 L75,180 A15,15 0 0,1 60,195 A15,15 0 0,1 45,180 M225,90 A15,15 0 0,0 210,75 A15,15 0 0,0 195,90 L195,135 L195,180 A15,15 0 0,0 210,195 L210,195 A15,15 0 0,0 225,180 M135,105 A30,30 0 0,1 165,135 A30,30 0 0,1 135,165 A30,30 0 0,1 105,135 A30,30 0 0,1 135,105 M45,105 L45,105 L45,165 M225,105 L225,105 L225,165 "/></svg>