<svg xmlns="http://www.w3.org/2000/svg" baseProfile="full" version="1.1" style="fill: none;" viewBox="26.88 56.87 216.25 156.27">    <path style="stroke-width: 15px; stroke-linecap: butt; stroke-linejoin: round; stroke: rgb(10, 10, 10); fill: none;" d="M135,75 A60,60 0 0,0 75,135 A60,60 0 0,0 135,195 A60,60 0 0,0 195,135 A60,60 0 0,0 135,75 M45,90 A15,15 0 0,1 60,75 A15,15 0 0,1 75,90 L75,135 L75,180 A15,15 0 0,1 60,195 A15,15 0 0,1 45,180 M225,90 A15,15 0 0,0 210,75 A15,15 0 0,0 195,90 L195,135 L195,180 A15,15 0 0,0 210,195 L210,195 A15,15 0 0,0 225,180 M135,105 A30,30 0 0,1 165,135 A30,30 0 0,1 135,165 A30,30 0 0,1 105,135 A30,30 0 0,1 135,105 M45,105 L45,105 L45,165 M225,105 L225,105 L225,165 "></path></svg>